<svg width="333" height="75" viewBox="0 35 333 35" xmlns="http://www.w3.org/2000/svg" xmlns:svg="http://www.w3.org/2000/svg" xmlns:xlink="http://www.w3.org/1999/xlink" version="1.1">
 <g class="layer">
  <title>Layer 1</title>
  <rect fill="#ffffff" height="154" id="svg_36" width="344" x="-441.5" y="64.7"/>
  <g id="svg_49">
   <g id="svg_37" transform="matrix(1 0 0 1 0 0)">
    <path d="m272,30.36c3.35,0.34 5.13,1.37 7.61,3.41c1.8,2.43 1.83,3.28 1.52,6.14c-0.71,1.73 -1.45,3.33 -2.33,4.99c-0.49,0.97 -0.98,1.94 -1.47,2.91c-0.25,0.49 -0.51,0.99 -0.77,1.5c-6.78,13.27 -6.78,13.27 -9.89,27.45c8.65,-3.57 13.07,-9.4 16.42,-17.1c1.37,-3.34 2.49,-6.72 3.35,-10.19c3.76,0.54 5.76,1.53 8.37,4.09c-0.1,4.92 -2.81,9.03 -5.14,13.39c-1.74,3.33 -2.91,6.13 -3.22,9.81c5.26,-2.11 10.75,-4.39 13.04,-9.43c0.48,-1.48 0.93,-2.97 1.36,-4.46c0.94,-2.87 2.23,-5.47 3.67,-8.15c0.24,-0.46 0.49,-0.91 0.74,-1.38c0.57,-1.06 1.15,-2.12 1.73,-3.19c-3.01,0 -6.02,0 -9.13,0c1.86,-3.34 2.98,-3.62 6.84,-4.78c2.62,-0.13 2.62,-0.13 4.56,0c1.2,-2.95 1.86,-5.75 2.28,-8.87c2.27,0.23 3.66,0.59 5.56,1.75c1.89,2.44 1.51,4.2 1.29,7.12c1.51,0.34 1.51,0.34 3.04,0.68c0,-0.45 0,-0.9 0,-1.36c3.71,0.6 3.71,0.6 4.56,1.36c-0.24,2.39 -0.24,2.39 -0.76,4.78c-1.95,0.87 -3.63,0.91 -5.8,1.06c-1.15,0.09 -1.15,0.09 -2.31,0.18c-0.59,0.04 -1.18,0.08 -1.78,0.12c-4.12,8.08 -7.54,15.61 -8.37,24.56c6.13,-1.24 9.95,-5.29 13.69,-9.55c0.5,0 1,0 1.52,0c-0.24,4.06 -1.55,6.07 -4.8,8.74c-0.37,0.33 -0.75,0.66 -1.13,0.99c-2.91,2.5 -4.91,3.79 -8.91,4.18c-2.66,-0.26 -2.66,-0.26 -4.37,-1.32c-1.66,-2.07 -2.59,-4.07 -3.61,-6.44c-0.34,0.32 -0.68,0.64 -1.03,0.98c-4.28,3.95 -7.59,6.24 -13.8,6.74c-2.66,-0.21 -2.66,-0.21 -4.42,-1.36c-1.32,-1.62 -2.02,-3.13 -2.81,-4.99c-0.48,0.39 -0.95,0.77 -1.45,1.17c-0.62,0.5 -1.24,1 -1.88,1.52c-0.62,0.5 -1.24,1 -1.88,1.51c-2.09,1.61 -2.91,1.92 -5.68,2.24c-2.81,-0.3 -2.81,-0.3 -4.94,-2.01c-1.98,-2.44 -2.56,-4.91 -3.19,-7.85c-0.49,0.53 -0.49,0.53 -1,1.07c-7.42,7.79 -7.42,7.79 -12.21,8.35c-1.36,0.07 -1.36,0.07 -2.75,0.13c-2.51,-2.61 -2.63,-4.31 -2.49,-7.66c0.89,-8.13 5.08,-15.49 11.61,-21.21c2.07,-1.47 3.54,-2.13 6.18,-2.22c2.68,0.35 5,0.85 7.51,1.75c0.21,-0.58 0.4,-1.17 0.62,-1.77c1.22,-3.16 2.84,-6.11 4.45,-9.14c1.33,-2.69 1.88,-4.76 1.83,-7.69c-0.02,-0.85 -0.03,-1.69 -0.05,-2.56z" fill="#664AFF" id="svg_2"/>
    <path d="m163.24,43.33c0.75,0.45 1.51,0.9 2.28,1.36c0.86,4.09 -0.83,6.54 -3.26,9.97c-1.16,1.44 -2.34,2.63 -3.73,3.89c-4.62,4.61 -4.75,12.28 -5.18,18.21c6.74,-2.14 11.35,-5.83 14.45,-11.6c0.33,-0.74 0.66,-1.49 1,-2.26c2.28,-4.93 6.09,-9.91 11.17,-12.75c4.53,-0.68 7.59,0.74 11.41,2.73c0.5,-1.13 1,-2.25 1.52,-3.41c2.91,0.36 4.61,1.02 6.84,2.73c-0.39,3.81 -2.04,6.54 -4.08,9.81c-4.59,6.95 -4.59,6.95 -5.8,14.75c4.74,-2.12 9.73,-5.19 12.17,-9.55c0.75,0 1.51,0 2.28,0c0.24,1.49 0.24,1.49 0,3.41c-1.57,1.62 -1.57,1.62 -3.8,3.41c-0.89,0.82 -1.78,1.64 -2.66,2.48c-2.72,2.42 -4.88,4.11 -8.75,4.69c-3.11,-0.46 -4.14,-1.57 -6.08,-3.75c-1,-1.92 -1,-1.92 -1.52,-3.41c-0.35,0.38 -0.7,0.76 -1.06,1.15c-0.46,0.49 -0.94,0.99 -1.41,1.5c-0.46,0.48 -0.92,0.98 -1.39,1.48c-1.47,1.34 -2.56,2.04 -4.5,2.7c-2.62,-0.1 -4.03,-0.22 -5.94,-1.88c-0.98,-1.66 -1.38,-3.1 -1.67,-4.95c-0.32,0.32 -0.65,0.64 -0.98,0.98c-3.32,3.15 -6.33,5.73 -11.45,5.91c-2.64,-0.15 -4.47,-0.33 -6.59,-1.81c-1.09,-2.37 -1.29,-4.57 -1.52,-7.12c-5.98,4.39 -11.44,9.39 -15.97,15.01c0.15,-7.46 5.91,-12.3 11.32,-17.52c0.52,-0.52 1.06,-1.04 1.6,-1.58c0.8,-0.76 0.8,-0.76 1.62,-1.53c1.9,-2.52 2.46,-4.95 3.13,-7.89c0.13,-0.54 0.27,-1.08 0.4,-1.63c0.32,-1.32 0.63,-2.64 0.94,-3.96c-5.54,2.09 -9.2,4.88 -12.31,9.54c-0.69,1.53 -0.75,2.64 -0.77,4.28c-0.41,3.98 -2.8,6.05 -5.94,8.7c-0.69,0.59 -0.69,0.59 -1.4,1.2c-3.8,3.08 -7.13,4.67 -12.34,4.51c-1.48,-0.25 -1.48,-0.25 -3.76,-1.58c-2.11,-2.91 -2.12,-4.85 -1.52,-8.23c1.1,-4.07 2.42,-8 4.65,-11.68c1.93,-3.18 2.4,-6.61 2.95,-10.15c4.27,0.27 6.33,1.28 9.13,4.09c-0.09,4.31 -2.13,7.81 -4.18,11.64c-2.84,5.23 -2.84,5.23 -4.18,10.88c4.84,-0.57 8.22,-2.91 11.41,-6.14c0.63,-1.84 0.81,-3.54 1.02,-5.45c1.29,-5.31 6.06,-10.39 10.86,-13.52c2.97,-1.54 5.21,-2.15 8.66,-1.49c2.27,1.67 3.7,3.28 5.32,5.46c5.1,-5.2 5.1,-5.2 7.61,-11.6z" fill="#674CFF" id="svg_3"/>
    <path d="m109.6,30.29c3.53,1.77 6.08,4.07 7.26,7.58c0.85,5.19 -0.12,9.8 -3.04,14.33c-4.21,4.99 -9.08,7.29 -15.9,8.17c-2.3,0.27 -4.61,0.49 -6.91,0.7c-0.49,1.18 -0.99,2.36 -1.48,3.54c-0.27,0.66 -0.55,1.32 -0.83,1.99c-1.32,3.54 -1.58,6.63 -1.54,10.38c0.01,0.85 0.01,1.71 0.02,2.59c0.02,0.65 0.02,1.3 0.03,1.97c-2.28,-0.68 -2.28,-0.68 -3.52,-2.22c-3.47,-6.23 -2.35,-14.49 -0.32,-20.98c1.18,-3.04 2.68,-5.91 4.23,-8.8c2.49,-4.67 4.46,-9.55 6.46,-14.4c-3.98,2.03 -5.56,3.84 -7.61,7.51c-1.57,-1.19 -1.57,-1.19 -3.04,-2.73c0.25,-2.22 1.1,-3.3 2.94,-4.73c6.63,-4.76 14.89,-7.61 23.27,-4.9z" fill="#674BFF" id="svg_4"/>
    <path d="m244.62,29c1,0.45 2.01,0.9 3.04,1.36c0.24,2.29 0.34,3.64 -1.11,5.58c-2.84,1.83 -5.32,1.56 -8.73,1.45c-0.61,-0.01 -1.21,-0.01 -1.84,-0.02c-3.03,-0.05 -5.89,-0.21 -8.85,-0.87c0.06,0.67 0.12,1.34 0.19,2.03c0,3.27 -1.53,5.69 -3.23,8.51c-0.29,0.5 -0.58,1 -0.88,1.51c-0.71,1.22 -1.43,2.44 -2.16,3.65c3.26,-0.45 6.53,-0.9 9.89,-1.36c1,1.58 2.01,3.15 3.04,4.78c-3.41,1.58 -6.42,1.41 -10.12,1.11c-0.84,-0.06 -0.84,-0.06 -1.71,-0.12c-1.38,-0.1 -2.76,-0.2 -4.14,-0.31c-0.13,0.35 -0.26,0.71 -0.4,1.08c-1.31,3.58 -2.73,7.1 -4.27,10.61c-0.84,2.48 -1.13,4.84 -1.42,7.42c2.28,-0.18 4.56,-0.36 6.84,-0.55c0.64,-0.05 1.28,-0.1 1.93,-0.15c4.27,-0.37 7.89,-1.02 11.76,-2.71c0.58,-1.39 0.58,-1.39 0.76,-2.73c2.28,0.68 2.28,0.68 3.04,2.05c0.11,1.12 0.17,2.24 0.19,3.37c0.02,0.59 0.04,1.19 0.06,1.81c-0.25,1.64 -0.25,1.64 -1.26,2.84c-4.38,2.93 -11.83,1.8 -16.93,1.23c-2.14,-0.32 -4.27,-0.67 -6.4,-1.06c0,0.68 0,1.35 0,2.05c-0.65,-0.33 -0.65,-0.33 -1.31,-0.67c-3.49,-1.4 -7.35,-1.06 -10.91,-0.01c-0.73,0.34 -0.73,0.34 -1.48,0.68c1.11,-2.62 2.56,-3.53 5.32,-4.78c1.01,-0.25 2.02,-0.47 3.04,-0.68c0.03,-0.8 0.05,-1.6 0.08,-2.42c0.27,-6.03 0.71,-11.61 2.96,-17.37c-1,0 -2.01,0 -3.04,0c0.5,-0.9 1,-1.8 1.52,-2.73c1,0 2.01,0 3.04,0c0.27,-0.79 0.53,-1.58 0.81,-2.39c1.86,-5.04 4.39,-9.84 6.8,-14.67c-2.55,0.65 -5.09,1.3 -7.61,2.05c0.25,-2.07 0.75,-2.72 2.47,-4.18c3.81,-2.33 6.77,-2.82 11.37,-2.86c1.06,-0.01 2.11,-0.03 3.16,-0.05c1.65,-0.02 3.31,-0.04 4.96,-0.05c1.6,-0.01 3.2,-0.04 4.81,-0.07c0.96,-0.01 1.91,-0.02 2.9,-0.03c0.75,-0.09 1.5,-0.18 2.27,-0.27c0.5,-0.68 1,-1.35 1.52,-2.05z" fill="#674BFF" id="svg_5"/>
    <path d="m100.12,33.09c4.63,-0.29 6.94,-0.05 10.65,2.73c1.48,1.47 2.23,2.32 2.5,4.3c-0.46,4.53 -1.82,7.56 -5.54,10.71c-3.96,2.59 -7.35,3.04 -12.17,2.73c0.83,-2.82 2.11,-4.93 3.89,-7.34c2.4,-3.47 3,-6.39 2.19,-10.41c-0.73,-1.51 -0.73,-1.51 -1.52,-2.73z" fill="#F8F7FF" id="svg_6"/>
    <path d="m262.87,54.93c-1,7.57 -7.3,15.5 -13.69,20.47c-1.67,0.48 -1.67,0.48 -3.04,0.68c0.28,-7.68 4.52,-13.85 10.65,-19.11c2.35,-1.54 3.19,-2.05 6.08,-2.05z" fill="#F6F4FF" id="svg_7"/>
    <path d="m186.77,55.7c0.78,0.29 0.78,0.29 1.57,0.6c-2.4,5.48 -5.19,10.31 -9.17,15.01c-0.32,0.38 -0.65,0.76 -0.97,1.16c-1.73,1.99 -3.16,3.41 -5.83,4.3c-0.6,-6.26 2.63,-12.18 6.84,-17.06c4.21,-4.14 4.21,-4.14 7.56,-4.01z" fill="#F8F7FF" id="svg_8"/>
    <path d="m122.17,35.82c4.56,0.68 4.56,0.68 6.42,1.79c1.19,1.62 1.19,1.62 1.19,4.05c-0.76,2.35 -0.76,2.35 -2.05,3.67c-1.76,0.72 -1.76,0.72 -6.32,0.72c0.25,-3.38 0.5,-6.76 0.76,-10.24z" fill="#6A50FF" id="svg_9"/>
    <path d="m290.25,35.82c4.56,0.68 4.56,0.68 6.42,1.79c1.19,1.62 1.19,1.62 1.19,4.05c-0.76,2.35 -0.76,2.35 -2.09,3.67c-1.71,0.72 -1.71,0.72 -5.51,0.72c0,-3.38 0,-6.76 0,-10.24z" fill="#684DFF" id="svg_10"/>
   </g>
   <use fill="#ffffff" id="svg_47" transform="matrix(1.53654 0 0 1.54021 191.55 -1.56173)" x="-113.13" xlink:href="#svg_34" y="17.78"/>
  </g>
 </g>
 <defs>
  <symbol height="34" id="svg_34" viewBox="0 0 34 34" width="34" xmlns="http://www.w3.org/2000/svg">
   <path d="m18.16,12.64c-0.21,0.08 -0.35,0.28 -0.35,0.51c0,0.22 0.14,0.43 0.35,0.51l2.65,0.99l1,2.65c0.08,0.21 0.28,0.35 0.5,0.35c0.23,0 0.43,-0.14 0.51,-0.35l0.99,-2.65l2.65,-0.99c0.21,-0.08 0.35,-0.29 0.35,-0.51c0,-0.23 -0.14,-0.43 -0.35,-0.51l-2.65,-0.99l-0.99,-2.65c-0.08,-0.21 -0.28,-0.35 -0.51,-0.35c-0.22,0 -0.42,0.14 -0.5,0.35l-1,2.65l-2.65,0.99zm-5.73,-0.56c-0.13,-0.26 -0.39,-0.43 -0.68,-0.43c-0.29,0 -0.56,0.17 -0.68,0.43l-2.48,5.35l-5.34,2.47c-0.27,0.12 -0.44,0.39 -0.44,0.68c0,0.3 0.17,0.56 0.44,0.68l5.35,2.47l2.46,5.35c0.12,0.26 0.39,0.43 0.68,0.43c0.29,0 0.56,-0.17 0.68,-0.43l2.47,-5.35l5.35,-2.47c0.27,-0.12 0.44,-0.39 0.44,-0.68c0,-0.29 -0.17,-0.56 -0.44,-0.68l-5.34,-2.47l-2.47,-5.35zm8.38,14.57l-2.65,0.99c-0.21,0.08 -0.35,0.28 -0.35,0.51c0,0.22 0.14,0.43 0.35,0.51l2.65,0.99l1,2.65c0.08,0.21 0.28,0.35 0.5,0.35c0.23,0 0.43,-0.14 0.51,-0.35l0.99,-2.65l2.65,-0.99c0.21,-0.08 0.35,-0.29 0.35,-0.51c0,-0.23 -0.14,-0.43 -0.35,-0.51l-2.65,-0.99l-0.99,-2.65c-0.08,-0.21 -0.28,-0.35 -0.51,-0.35c-0.22,0 -0.42,0.14 -0.5,0.35l-1,2.65z" fill="url(#svg_22)"/>
   <g filter="url(#svg_33)">
    <ellipse cx="15.27" cy="24.36" rx="13.73" ry="2.34" stroke="url(#svg_21)" stroke-width="0.55" transform="rotate(160.848 15.2712 24.3615)"/>
    <g filter="url(#svg_32)">
     <ellipse cx="15.27" cy="24.36" rx="13.73" ry="2.34" stroke="url(#svg_20)" stroke-width="0.55" transform="rotate(160.848 15.2712 24.3615)"/>
    </g>
   </g>
   <g filter="url(#svg_31)">
    <circle cx="26.22" cy="1.72" fill="url(#svg_19)" r="0.37"/>
   </g>
   <g filter="url(#svg_30)">
    <circle cx="33.03" cy="8.4" fill="url(#svg_18)" r="0.16"/>
   </g>
   <g filter="url(#svg_29)">
    <circle cx="7.22" cy="12.09" fill="url(#svg_17)" r="0.41"/>
   </g>
   <g filter="url(#svg_28)">
    <circle cx="3.04" cy="23.98" fill="url(#svg_16)" r="0.41"/>
   </g>
   <g filter="url(#svg_27)">
    <circle cx="27.08" cy="27.24" fill="url(#svg_15)" r="0.41"/>
   </g>
   <g filter="url(#svg_26)">
    <circle cx="8.06" cy="20.62" fill="url(#svg_14)" r="0.16"/>
   </g>
   <g filter="url(#svg_25)">
    <circle cx="14.06" cy="7.89" fill="url(#svg_13)" r="0.25"/>
   </g>
   <g filter="url(#svg_24)">
    <path d="m25.63,13.88c-0.11,-0.01 -0.19,-0.11 -0.19,-0.23c0,-1.05 -0.12,-1.22 -1.1,-1.47c-0.11,-0.03 -0.19,-0.14 -0.17,-0.25c0.02,-0.12 0.12,-0.2 0.23,-0.2c1.01,0.01 1.15,-0.1 1.48,-1.1c0.03,-0.11 0.13,-0.18 0.24,-0.17c0.12,0.02 0.19,0.11 0.2,0.23c0,1.06 0.12,1.22 1.1,1.48c0.11,0.03 0.18,0.13 0.17,0.25c-0.02,0.11 -0.11,0.19 -0.23,0.19c-1.01,0 -1.15,0.1 -1.48,1.11c-0.04,0.11 -0.14,0.18 -0.25,0.16z" fill="url(#svg_12)"/>
   </g>
   <g filter="url(#svg_23)">
    <path d="m4.8,19.26c-0.08,0.01 -0.16,-0.03 -0.18,-0.12c-0.23,-0.73 -0.34,-0.82 -1.08,-0.79c-0.08,0 -0.16,-0.06 -0.17,-0.14c-0.01,-0.08 0.04,-0.16 0.12,-0.18c0.7,-0.21 0.78,-0.31 0.8,-1.08c0,-0.08 0.05,-0.15 0.13,-0.16c0.09,-0.02 0.16,0.03 0.19,0.12c0.22,0.73 0.34,0.81 1.07,0.79c0.08,0 0.16,0.05 0.17,0.14c0.01,0.08 -0.04,0.15 -0.12,0.18c-0.7,0.21 -0.78,0.31 -0.79,1.08c-0.01,0.08 -0.06,0.15 -0.14,0.16z" fill="url(#svg_11)"/>
   </g>
   <defs>
    <filter color-interpolation-filters="sRGB" filterUnits="userSpaceOnUse" height="13.86" id="svg_33" width="29.81" x="0.36" y="17.76">
     <feFlood flood-opacity="0" result="BackgroundImageFix"/>
     <feColorMatrix in="SourceAlpha" result="hardAlpha" type="matrix" values="0 0 0 0 0 0 0 0 0 0 0 0 0 0 0 0 0 0 127 0"/>
     <feOffset dy="0.33"/>
     <feGaussianBlur stdDeviation="0.82"/>
     <feComposite in2="hardAlpha" operator="out"/>
     <feColorMatrix type="matrix" values="0 0 0 0 0 0 0 0 0 0 0 0 0 0 0 0 0 0 0.45 0"/>
     <feBlend in2="BackgroundImageFix"/>
     <feBlend in="SourceGraphic" in2="effect1_dropShadow_1902_1538"/>
    </filter>
    <filter color-interpolation-filters="sRGB" filterUnits="userSpaceOnUse" height="11.09" id="svg_32" width="27.05" x="1.75" y="18.81">
     <feFlood flood-opacity="0" result="BackgroundImageFix"/>
     <feBlend in="SourceGraphic" in2="BackgroundImageFix"/>
     <feGaussianBlur result="effect1_foregroundBlur_1902_1538" stdDeviation="0.13"/>
    </filter>
    <filter color-interpolation-filters="sRGB" filterUnits="userSpaceOnUse" height="1.42" id="svg_31" width="1.42" x="25.51" y="1.01">
     <feFlood flood-opacity="0" result="BackgroundImageFix"/>
     <feColorMatrix in="SourceAlpha" result="hardAlpha" type="matrix" values="0 0 0 0 0 0 0 0 0 0 0 0 0 0 0 0 0 0 127 0"/>
     <feOffset/>
     <feGaussianBlur stdDeviation="0.17"/>
     <feComposite in2="hardAlpha" operator="out"/>
     <feColorMatrix type="matrix" values="0 0 0 0 0.592157 0 0 0 0 0.392157 0 0 0 0 1 0 0 0 1 0"/>
     <feBlend in2="BackgroundImageFix"/>
     <feBlend in="SourceGraphic" in2="effect1_dropShadow_1902_1538"/>
    </filter>
    <filter color-interpolation-filters="sRGB" filterUnits="userSpaceOnUse" height="1" id="svg_30" width="1" x="32.53" y="7.9">
     <feFlood flood-opacity="0" result="BackgroundImageFix"/>
     <feColorMatrix in="SourceAlpha" result="hardAlpha" type="matrix" values="0 0 0 0 0 0 0 0 0 0 0 0 0 0 0 0 0 0 127 0"/>
     <feOffset/>
     <feGaussianBlur stdDeviation="0.17"/>
     <feComposite in2="hardAlpha" operator="out"/>
     <feColorMatrix type="matrix" values="0 0 0 0 0.592157 0 0 0 0 0.392157 0 0 0 0 1 0 0 0 1 0"/>
     <feBlend in2="BackgroundImageFix"/>
     <feBlend in="SourceGraphic" in2="effect1_dropShadow_1902_1538"/>
    </filter>
    <filter color-interpolation-filters="sRGB" filterUnits="userSpaceOnUse" height="2.58" id="svg_29" width="2.58" x="5.93" y="10.79">
     <feFlood flood-opacity="0" result="BackgroundImageFix"/>
     <feColorMatrix in="SourceAlpha" result="hardAlpha" type="matrix" values="0 0 0 0 0 0 0 0 0 0 0 0 0 0 0 0 0 0 127 0"/>
     <feOffset/>
     <feGaussianBlur stdDeviation="0.44"/>
     <feComposite in2="hardAlpha" operator="out"/>
     <feColorMatrix type="matrix" values="0 0 0 0 0.592157 0 0 0 0 0.392157 0 0 0 0 1 0 0 0 1 0"/>
     <feBlend in2="BackgroundImageFix"/>
     <feBlend in="SourceGraphic" in2="effect1_dropShadow_1902_1538"/>
    </filter>
    <filter color-interpolation-filters="sRGB" filterUnits="userSpaceOnUse" height="2.58" id="svg_28" width="2.58" x="1.74" y="22.69">
     <feFlood flood-opacity="0" result="BackgroundImageFix"/>
     <feColorMatrix in="SourceAlpha" result="hardAlpha" type="matrix" values="0 0 0 0 0 0 0 0 0 0 0 0 0 0 0 0 0 0 127 0"/>
     <feOffset/>
     <feGaussianBlur stdDeviation="0.44"/>
     <feComposite in2="hardAlpha" operator="out"/>
     <feColorMatrix type="matrix" values="0 0 0 0 0.592157 0 0 0 0 0.392157 0 0 0 0 1 0 0 0 1 0"/>
     <feBlend in2="BackgroundImageFix"/>
     <feBlend in="SourceGraphic" in2="effect1_dropShadow_1902_1538"/>
    </filter>
    <filter color-interpolation-filters="sRGB" filterUnits="userSpaceOnUse" height="2.58" id="svg_27" width="2.58" x="25.78" y="25.95">
     <feFlood flood-opacity="0" result="BackgroundImageFix"/>
     <feColorMatrix in="SourceAlpha" result="hardAlpha" type="matrix" values="0 0 0 0 0 0 0 0 0 0 0 0 0 0 0 0 0 0 127 0"/>
     <feOffset/>
     <feGaussianBlur stdDeviation="0.44"/>
     <feComposite in2="hardAlpha" operator="out"/>
     <feColorMatrix type="matrix" values="0 0 0 0 0.592157 0 0 0 0 0.392157 0 0 0 0 1 0 0 0 1 0"/>
     <feBlend in2="BackgroundImageFix"/>
     <feBlend in="SourceGraphic" in2="effect1_dropShadow_1902_1538"/>
    </filter>
    <filter color-interpolation-filters="sRGB" filterUnits="userSpaceOnUse" height="1" id="svg_26" width="1" x="7.56" y="20.12">
     <feFlood flood-opacity="0" result="BackgroundImageFix"/>
     <feColorMatrix in="SourceAlpha" result="hardAlpha" type="matrix" values="0 0 0 0 0 0 0 0 0 0 0 0 0 0 0 0 0 0 127 0"/>
     <feOffset/>
     <feGaussianBlur stdDeviation="0.17"/>
     <feComposite in2="hardAlpha" operator="out"/>
     <feColorMatrix type="matrix" values="0 0 0 0 0.592157 0 0 0 0 0.392157 0 0 0 0 1 0 0 0 1 0"/>
     <feBlend in2="BackgroundImageFix"/>
     <feBlend in="SourceGraphic" in2="effect1_dropShadow_1902_1538"/>
    </filter>
    <filter color-interpolation-filters="sRGB" filterUnits="userSpaceOnUse" height="1.57" id="svg_25" width="1.57" x="13.27" y="7.11">
     <feFlood flood-opacity="0" result="BackgroundImageFix"/>
     <feColorMatrix in="SourceAlpha" result="hardAlpha" type="matrix" values="0 0 0 0 0 0 0 0 0 0 0 0 0 0 0 0 0 0 127 0"/>
     <feOffset/>
     <feGaussianBlur stdDeviation="0.27"/>
     <feComposite in2="hardAlpha" operator="out"/>
     <feColorMatrix type="matrix" values="0 0 0 0 0.592157 0 0 0 0 0.392157 0 0 0 0 1 0 0 0 1 0"/>
     <feBlend in2="BackgroundImageFix"/>
     <feBlend in="SourceGraphic" in2="effect1_dropShadow_1902_1538"/>
    </filter>
    <filter color-interpolation-filters="sRGB" filterUnits="userSpaceOnUse" height="7.68" id="svg_24" width="7.68" x="22.04" y="8.89">
     <feFlood flood-opacity="0" result="BackgroundImageFix"/>
     <feColorMatrix in="SourceAlpha" result="hardAlpha" type="matrix" values="0 0 0 0 0 0 0 0 0 0 0 0 0 0 0 0 0 0 127 0"/>
     <feOffset dy="0.55"/>
     <feGaussianBlur stdDeviation="1.07"/>
     <feComposite in2="hardAlpha" operator="out"/>
     <feColorMatrix type="matrix" values="0 0 0 0 0.296824 0 0 0 0 0.244184 0 0 0 0 0.404167 0 0 0 0.6 0"/>
     <feBlend in2="BackgroundImageFix"/>
     <feBlend in="SourceGraphic" in2="effect1_dropShadow_1902_1538"/>
    </filter>
    <filter color-interpolation-filters="sRGB" filterUnits="userSpaceOnUse" height="4.64" id="svg_23" width="4.64" x="2.29" y="15.98">
     <feFlood flood-opacity="0" result="BackgroundImageFix"/>
     <feColorMatrix in="SourceAlpha" result="hardAlpha" type="matrix" values="0 0 0 0 0 0 0 0 0 0 0 0 0 0 0 0 0 0 127 0"/>
     <feOffset dy="0.28"/>
     <feGaussianBlur stdDeviation="0.54"/>
     <feComposite in2="hardAlpha" operator="out"/>
     <feColorMatrix type="matrix" values="0 0 0 0 0.220722 0 0 0 0 0.210451 0 0 0 0 0.241667 0 0 0 0.6 0"/>
     <feBlend in2="BackgroundImageFix"/>
     <feBlend in="SourceGraphic" in2="effect1_dropShadow_1902_1538"/>
    </filter>
    <linearGradient gradientUnits="userSpaceOnUse" id="svg_22" x1="3.52" x2="27.38" y1="19.41" y2="19.91">
     <stop stop-color="#26A4FF"/>
     <stop offset="1" stop-color="#0D9AFF"/>
    </linearGradient>
    <linearGradient gradientUnits="userSpaceOnUse" id="svg_21" x1="29.16" x2="29.14" y1="22.65" y2="25.74">
     <stop stop-color="#3F5FFF"/>
     <stop offset="1" stop-color="#3F5FFF" stop-opacity="0"/>
    </linearGradient>
    <linearGradient gradientUnits="userSpaceOnUse" id="svg_20" x1="29.16" x2="29.14" y1="22.65" y2="25.74">
     <stop stop-color="#1DA0FF"/>
     <stop offset="1" stop-color="#199FFF" stop-opacity="0.13"/>
    </linearGradient>
    <linearGradient gradientUnits="userSpaceOnUse" id="svg_19" x1="25.88" x2="26.61" y1="1.68" y2="1.7">
     <stop stop-color="#26A4FF"/>
     <stop offset="1" stop-color="#0D9AFF"/>
    </linearGradient>
    <linearGradient gradientUnits="userSpaceOnUse" id="svg_18" x1="32.88" x2="33.2" y1="8.38" y2="8.39">
     <stop stop-color="#26A4FF"/>
     <stop offset="1" stop-color="#0D9AFF"/>
    </linearGradient>
    <linearGradient gradientUnits="userSpaceOnUse" id="svg_17" x1="6.84" x2="7.64" y1="12.04" y2="12.06">
     <stop stop-color="#26A4FF"/>
     <stop offset="1" stop-color="#0D9AFF"/>
    </linearGradient>
    <linearGradient gradientUnits="userSpaceOnUse" id="svg_16" x1="2.65" x2="3.46" y1="23.94" y2="23.95">
     <stop stop-color="#26A4FF"/>
     <stop offset="1" stop-color="#0D9AFF"/>
    </linearGradient>
    <linearGradient gradientUnits="userSpaceOnUse" id="svg_15" x1="26.69" x2="27.5" y1="27.2" y2="27.22">
     <stop stop-color="#26A4FF"/>
     <stop offset="1" stop-color="#0D9AFF"/>
    </linearGradient>
    <linearGradient gradientUnits="userSpaceOnUse" id="svg_14" x1="7.91" x2="8.22" y1="20.6" y2="20.61">
     <stop stop-color="#26A4FF"/>
     <stop offset="1" stop-color="#0D9AFF"/>
    </linearGradient>
    <linearGradient gradientUnits="userSpaceOnUse" id="svg_13" x1="13.83" x2="14.31" y1="7.87" y2="7.88">
     <stop stop-color="#26A4FF"/>
     <stop offset="1" stop-color="#0D9AFF"/>
    </linearGradient>
    <linearGradient gradientUnits="userSpaceOnUse" id="svg_12" x1="27.51" x2="24.1" y1="12.23" y2="11.81">
     <stop stop-color="#26A4FF"/>
     <stop offset="1" stop-color="#0D9AFF"/>
    </linearGradient>
    <linearGradient gradientUnits="userSpaceOnUse" id="svg_11" x1="5.76" x2="3.3" y1="17.72" y2="18.14">
     <stop stop-color="#26A4FF"/>
     <stop offset="1" stop-color="#0D9AFF"/>
    </linearGradient>
   </defs>
  </symbol>
 </defs>
</svg>